{"title":"Transformers 3 Dark Of The Moon (2011) Xvid Stumpie1971","uid":6699219,"size":1532573580,"categoryP":"video","categoryS":"movies","magnet":"?xt=urn:btih:52b6c86eb67b4b65210269ee76a1e5df39adfc5d&amp;dn=Transformers+3+Dark+Of+The+Moon+%282011%29+Xvid+Stumpie1971&amp;tr=udp%3A%2F%2Ftracker.openbittorrent.com%3A80&amp;tr=udp%3A%2F%2Fopen.demonii.com%3A1337&amp;tr=udp%3A%2F%2Ftracker.coppersurfer.tk%3A6969&amp;tr=udp%3A%2F%2Fexodus.desync.com%3A6969","seeders":0,"leechers":0,"uploader":"stumpie1971","files":-1,"time":1316896847,"description":" &lt;a href=&quot; http://www.hotimg.com/direct/EXNNXpN.jpg&quot; rel=&quot;nofollow&quot; target=&quot;_NEW&quot;&gt; http://www.hotimg.com/direct/EXNNXpN.jpg&lt;/a&gt;\n\nScreens:\n  &lt;a href=&quot;\nhttp://www.hotimg.com/direct/xUaEkfy.jpg&quot; rel=&quot;nofollow&quot; target=&quot;_NEW&quot;&gt;\nhttp://www.hotimg.com/direct/xUaEkfy.jpg&lt;/a&gt;\n  &lt;a href=&quot;\nhttp://www.hotimg.com/direct/sTrN9Pf.jpg&quot; rel=&quot;nofollow&quot; target=&quot;_NEW&quot;&gt;\nhttp://www.hotimg.com/direct/sTrN9Pf.jpg&lt;/a&gt;\n  &lt;a href=&quot;\nhttp://www.hotimg.com/direct/nDnypmu.jpg&quot; rel=&quot;nofollow&quot; target=&quot;_NEW&quot;&gt;\nhttp://www.hotimg.com/direct/nDnypmu.jpg&lt;/a&gt;\n  &lt;a href=&quot;\nhttp://www.hotimg.com/direct/AjPfHK3.jpg&quot; rel=&quot;nofollow&quot; target=&quot;_NEW&quot;&gt;\nhttp://www.hotimg.com/direct/AjPfHK3.jpg&lt;/a&gt;\n\nAlternative:\n  &lt;a href=&quot;\nhttp://www.postimg.com/image/48000/photo-47798.jpg&quot; rel=&quot;nofollow&quot; target=&quot;_NEW&quot;&gt;\nhttp://www.postimg.com/image/48000/photo-47798.jpg&lt;/a&gt;\n  &lt;a href=&quot;\nhttp://www.postimg.com/image/48000/photo-47799.jpg&quot; rel=&quot;nofollow&quot; target=&quot;_NEW&quot;&gt;\nhttp://www.postimg.com/image/48000/photo-47799.jpg&lt;/a&gt;\n  &lt;a href=&quot;\nhttp://www.postimg.com/image/48000/photo-47800.jpg&quot; rel=&quot;nofollow&quot; target=&quot;_NEW&quot;&gt;\nhttp://www.postimg.com/image/48000/photo-47800.jpg&lt;/a&gt;\n  &lt;a href=&quot;\nhttp://www.postimg.com/image/48000/photo-47801.jpg&quot; rel=&quot;nofollow&quot; target=&quot;_NEW&quot;&gt;\nhttp://www.postimg.com/image/48000/photo-47801.jpg&lt;/a&gt;\n\nScreenCaps:\n  &lt;a href=&quot;\nhttp://www.postimg.com/image/48000/photo-47803.jpg&quot; rel=&quot;nofollow&quot; target=&quot;_NEW&quot;&gt;\nhttp://www.postimg.com/image/48000/photo-47803.jpg&lt;/a&gt;\n\nTransformers 3 Dark of the Moon (2011) DVDRip XviD-MAX \nFormat                           : AVI\nFormat/Info                      : Audio Video Interleave\nFormat profile                   : OpenDML\nFile size                        : 1.43 GiB\nDuration                         : 2h 34mn\nOverall bit rate                 : 1 324 Kbps\nWriting application              : VirtualDubMod 1.5.10.2 (build 2542/release)\nWriting library                  : VirtualDubMod build 2542/release\nOriginal source form             : MAX TORRENTZ\nCopyright                        : SIGISMUNT\n\n\nVideo\nID                               : 0\nFormat                           : MPEG-4 Visual\nFormat profile                   : AdvancedSimple@L5\nFormat settings, BVOP            : Yes\nFormat settings, QPel            : No\nFormat settings, GMC             : No warppoints\nFormat settings, Matrix          : Default (H.263)\nMuxing mode                      : Packed bitstream\nCodec ID                         : XVID\nCodec ID/Hint                    : XviD\nDuration                         : 2h 34mn\nBit rate                         : 1 128 Kbps\nWidth                            : 624 pixels\nHeight                           : 256 pixels\nDisplay aspect ratio             : 2.40:1\nFrame rate                       : 23.976 fps\nResolution                       : 24 bits\nColorimetry                      : 4:2:0\nScan type                        : Progressive\nBits/(Pixel*Frame)               : 0.295\nStream size                      : 1.22 GiB (85%)\nWriting library                  : XviD 63\n\nAudio\nID                               : 1\nFormat                           : MPEG Audio\nFormat version                   : Version 1\nFormat profile                   : Layer 3\nCodec ID                         : 55\nCodec ID/Hint                    : MP3\nDuration                         : 2h 34mn\nBit rate mode                    : Constant\nBit rate                         : 192 Kbps\nChannel(s)                       : 2 channels\nSampling rate                    : 48.0 KHz\nResolution                       : 16 bits\nStream size                      : 212 MiB (15%)\nAlignment                        : Aligned on interleaves\nInterleave, duration             : 649 ms (15.56 video frames)\nInterleave, preload duration     : 216 ms\n  &lt;a href=&quot;\nhttp://www.imdb.com/title/tt1399103/&quot; rel=&quot;nofollow&quot; target=&quot;_NEW&quot;&gt;\nhttp://www.imdb.com/title/tt1399103/&lt;/a&gt;","torrent":{"xt":"urn:btih:52b6c86eb67b4b65210269ee76a1e5df39adfc5d","amp;dn":"Transformers+3+Dark+Of+The+Moon+%282011%29+Xvid+Stumpie1971","amp;tr":["udp%3A%2F%2Ftracker.openbittorrent.com%3A80","udp%3A%2F%2Fopen.demonii.com%3A1337","udp%3A%2F%2Ftracker.coppersurfer.tk%3A6969","udp%3A%2F%2Fexodus.desync.com%3A6969"],"infoHash":"52b6c86eb67b4b65210269ee76a1e5df39adfc5d","infoHashBuffer":{"type":"Buffer","data":[82,182,200,110,182,123,75,101,33,2,105,238,118,161,229,223,57,173,252,93]},"announce":[],"urlList":[]}}